<svg xmlns="http://www.w3.org/2000/svg" width="154" height="40" fill="none" viewBox="0 0 154 40">
  <path fill="#fff" d="M42.52 34l5.16-14H50l5.12 14h-2.24l-1.2-3.42h-5.72L44.76 34h-2.24zm4.04-5.1h4.52l-2.26-6.38-2.26 6.38zM56.992 38.4V24.08h1.9l.22 1.54c.32-.467.76-.88 1.32-1.24s1.28-.54 2.16-.54c.96 0 1.807.227 2.54.68a4.725 4.725 0 011.72 1.86c.427.787.64 1.68.64 2.68 0 1-.213 1.893-.64 2.68a4.76 4.76 0 01-1.72 1.84c-.733.44-1.586.66-2.56.66-.773 0-1.46-.153-2.06-.46a3.552 3.552 0 01-1.4-1.3v5.92h-2.12zm5.22-6c.907 0 1.654-.307 2.24-.92.587-.627.88-1.44.88-2.44 0-.653-.133-1.233-.4-1.74a2.94 2.94 0 00-1.1-1.18c-.466-.293-1.006-.44-1.62-.44-.906 0-1.653.313-2.24.94-.573.627-.86 1.433-.86 2.42 0 1 .287 1.813.86 2.44.587.613 1.334.92 2.24.92zM69.785 38.4V24.08h1.9l.22 1.54c.32-.467.76-.88 1.32-1.24s1.28-.54 2.16-.54c.96 0 1.807.227 2.54.68a4.723 4.723 0 011.72 1.86c.427.787.64 1.68.64 2.68 0 1-.213 1.893-.64 2.68a4.76 4.76 0 01-1.72 1.84c-.733.44-1.586.66-2.56.66-.773 0-1.46-.153-2.06-.46a3.553 3.553 0 01-1.4-1.3v5.92h-2.12zm5.22-6c.907 0 1.654-.307 2.24-.92.587-.627.88-1.44.88-2.44 0-.653-.133-1.233-.4-1.74a2.938 2.938 0 00-1.1-1.18c-.466-.293-1.006-.44-1.62-.44-.906 0-1.653.313-2.24.94-.573.627-.86 1.433-.86 2.42 0 1 .287 1.813.86 2.44.587.613 1.334.92 2.24.92zM92.317 34.24c-1.026 0-1.926-.18-2.7-.54-.773-.36-1.38-.873-1.82-1.54-.426-.667-.646-1.46-.66-2.38h2.24c.014.747.274 1.38.78 1.9.507.52 1.22.78 2.14.78.814 0 1.447-.193 1.9-.58.467-.4.7-.907.7-1.52 0-.493-.113-.893-.34-1.2a2.426 2.426 0 00-.9-.76 7.96 7.96 0 00-1.3-.54c-.493-.16-1.013-.333-1.56-.52-1.08-.36-1.893-.827-2.44-1.4-.533-.573-.8-1.327-.8-2.26-.013-.787.167-1.473.54-2.06.387-.587.92-1.04 1.6-1.36.694-.333 1.5-.5 2.42-.5.907 0 1.7.167 2.38.5.694.333 1.234.8 1.62 1.4.387.587.587 1.273.6 2.06h-2.24c0-.36-.093-.7-.28-1.02a2.2 2.2 0 00-.82-.82c-.36-.213-.8-.32-1.32-.32-.666-.013-1.22.153-1.66.5-.426.347-.64.827-.64 1.44 0 .547.16.967.48 1.26.32.293.76.54 1.32.74.56.187 1.2.407 1.92.66.694.227 1.314.5 1.86.82.547.32.98.74 1.3 1.26.334.52.5 1.18.5 1.98 0 .707-.18 1.367-.54 1.98-.36.6-.9 1.093-1.62 1.48-.72.373-1.606.56-2.66.56zM103.535 34c-.973 0-1.746-.233-2.32-.7-.573-.48-.86-1.327-.86-2.54v-4.9h-1.7v-1.78h1.7l.26-2.52h1.86v2.52h2.8v1.78h-2.8v4.9c0 .547.114.927.34 1.14.24.2.647.3 1.22.3h1.14V34h-1.64zM111.847 34.24c-.946 0-1.8-.213-2.56-.64a4.866 4.866 0 01-1.78-1.82c-.44-.787-.66-1.7-.66-2.74 0-1.04.22-1.947.66-2.72a4.777 4.777 0 011.82-1.82c.76-.44 1.607-.66 2.54-.66.947 0 1.794.22 2.54.66a4.634 4.634 0 011.8 1.82c.454.773.68 1.68.68 2.72 0 1.04-.226 1.953-.68 2.74a4.815 4.815 0 01-1.8 1.82c-.76.427-1.613.64-2.56.64zm0-1.82a2.773 2.773 0 002.46-1.5c.267-.507.4-1.133.4-1.88 0-.747-.133-1.367-.4-1.86-.253-.507-.6-.887-1.04-1.14a2.69 2.69 0 00-1.4-.38 2.8 2.8 0 00-1.42.38c-.426.253-.773.633-1.04 1.14-.266.493-.4 1.113-.4 1.86 0 .747.134 1.373.4 1.88.267.493.614.867 1.04 1.12.427.253.894.38 1.4.38zM119.18 34v-9.92h1.9l.18 1.88a3.915 3.915 0 011.44-1.54c.627-.387 1.38-.58 2.26-.58v2.22h-.58c-.587 0-1.113.1-1.58.3-.453.187-.82.513-1.1.98-.267.453-.4 1.087-.4 1.9V34h-2.12zM131.144 34.24c-.973 0-1.84-.213-2.6-.64a4.714 4.714 0 01-1.76-1.82c-.427-.773-.64-1.673-.64-2.7 0-1.04.207-1.953.62-2.74a4.677 4.677 0 011.76-1.84c.76-.44 1.64-.66 2.64-.66.973 0 1.82.22 2.54.66.72.427 1.28 1 1.68 1.72.4.72.6 1.513.6 2.38 0 .133-.007.28-.02.44 0 .147-.007.313-.02.5h-7.72c.067.96.38 1.693.94 2.2.573.493 1.233.74 1.98.74.6 0 1.1-.133 1.5-.4.413-.28.72-.653.92-1.12h2.12c-.267.933-.8 1.713-1.6 2.34-.787.627-1.767.94-2.94.94zm0-8.66c-.707 0-1.333.213-1.88.64-.547.413-.88 1.04-1 1.88h5.6c-.04-.773-.313-1.387-.82-1.84-.507-.453-1.14-.68-1.9-.68z"/>
  <g>
    <path fill="#fff" d="M43.036 15V5.2h3.01c1.727 0 2.996.439 3.808 1.316.822.877 1.232 2.081 1.232 3.612 0 1.503-.41 2.693-1.232 3.57-.812.868-2.081 1.302-3.808 1.302h-3.01zm1.176-.98h1.806c.952 0 1.708-.154 2.268-.462.57-.317.975-.765 1.218-1.344.243-.588.364-1.283.364-2.086 0-.821-.121-1.526-.364-2.114a2.695 2.695 0 00-1.218-1.358c-.56-.317-1.316-.476-2.268-.476h-1.806v7.84zM55.878 15.168a3.49 3.49 0 01-1.764-.448 3.297 3.297 0 01-1.246-1.26c-.299-.55-.448-1.195-.448-1.932 0-.737.154-1.377.462-1.918.308-.55.724-.975 1.246-1.274a3.569 3.569 0 011.778-.448c.654 0 1.242.15 1.764.448.523.299.933.723 1.232 1.274.308.541.462 1.18.462 1.918 0 .737-.154 1.381-.462 1.932a3.268 3.268 0 01-1.26 1.26 3.491 3.491 0 01-1.764.448zm0-1.008c.401 0 .775-.098 1.12-.294.346-.196.626-.49.84-.882.215-.392.322-.877.322-1.456s-.107-1.064-.322-1.456a2.104 2.104 0 00-.826-.882 2.205 2.205 0 00-1.106-.294c-.401 0-.774.098-1.12.294-.345.196-.625.49-.84.882-.215.392-.322.877-.322 1.456s.107 1.064.322 1.456c.215.392.49.686.826.882.346.196.714.294 1.106.294zM62.14 15l-2.03-6.944h1.176l1.47 5.446 1.624-5.446h1.33l1.638 5.446 1.456-5.446h1.19L67.964 15H66.76l-1.708-5.726L63.344 15H62.14zM71.294 15V8.056h1.064l.07 1.246c.224-.439.546-.784.966-1.036.42-.252.896-.378 1.428-.378.822 0 1.475.252 1.96.756.495.495.742 1.26.742 2.296V15h-1.176v-3.934c0-1.447-.597-2.17-1.792-2.17-.597 0-1.096.22-1.498.658-.392.43-.588 1.045-.588 1.848V15h-1.176zM79.306 15V4.92h1.176V15h-1.176zM85.573 15.168c-.653 0-1.24-.15-1.763-.448a3.297 3.297 0 01-1.246-1.26c-.3-.55-.448-1.195-.448-1.932 0-.737.153-1.377.462-1.918.307-.55.723-.975 1.245-1.274a3.57 3.57 0 011.779-.448c.653 0 1.24.15 1.763.448.523.299.934.723 1.233 1.274.308.541.462 1.18.462 1.918 0 .737-.154 1.381-.463 1.932a3.268 3.268 0 01-1.26 1.26 3.491 3.491 0 01-1.764.448zm0-1.008c.402 0 .775-.098 1.12-.294.346-.196.626-.49.84-.882.215-.392.323-.877.323-1.456s-.108-1.064-.322-1.456a2.104 2.104 0 00-.827-.882 2.205 2.205 0 00-1.105-.294c-.402 0-.775.098-1.12.294-.346.196-.626.49-.84.882-.215.392-.322.877-.322 1.456s.107 1.064.322 1.456c.214.392.49.686.826.882.345.196.713.294 1.105.294zM93.005 15.168c-.579 0-1.06-.098-1.442-.294-.383-.196-.668-.457-.854-.784a2.109 2.109 0 01-.28-1.064c0-.71.27-1.255.812-1.638.541-.383 1.278-.574 2.212-.574h1.876v-.084c0-.607-.159-1.064-.476-1.372-.318-.317-.742-.476-1.274-.476-.458 0-.854.117-1.19.35-.327.224-.532.555-.616.994h-1.204c.046-.504.214-.929.504-1.274a2.85 2.85 0 011.106-.784c.438-.187.905-.28 1.4-.28.97 0 1.698.261 2.184.784.494.513.742 1.2.742 2.058V15h-1.05l-.07-1.246a2.79 2.79 0 01-.868 1.008c-.374.27-.878.406-1.512.406zm.182-.994c.448 0 .83-.117 1.148-.35.326-.233.574-.537.742-.91.168-.373.252-.765.252-1.176v-.014H93.55c-.691 0-1.181.121-1.47.364a1.1 1.1 0 00-.42.882c0 .364.13.658.392.882.27.215.648.322 1.134.322zM101.419 15.168c-.691 0-1.297-.159-1.82-.476a3.306 3.306 0 01-1.204-1.302c-.28-.55-.42-1.176-.42-1.876s.145-1.32.434-1.862c.29-.55.69-.98 1.204-1.288.513-.317 1.12-.476 1.82-.476.569 0 1.073.117 1.512.35.439.233.779.56 1.022.98V4.92h1.176V15h-1.064l-.112-1.148c-.224.336-.546.64-.966.91-.42.27-.947.406-1.582.406zm.126-1.022c.467 0 .877-.107 1.232-.322.364-.224.644-.532.84-.924.205-.392.308-.85.308-1.372 0-.523-.103-.98-.308-1.372a2.143 2.143 0 00-.84-.91 2.258 2.258 0 00-1.232-.336c-.457 0-.868.112-1.232.336a2.264 2.264 0 00-.84.91c-.196.392-.294.85-.294 1.372 0 .523.098.98.294 1.372.205.392.485.7.84.924a2.38 2.38 0 001.232.322zM113.929 15.168c-.653 0-1.241-.15-1.764-.448a3.295 3.295 0 01-1.246-1.26c-.299-.55-.448-1.195-.448-1.932 0-.737.154-1.377.462-1.918a3.27 3.27 0 011.246-1.274 3.57 3.57 0 011.778-.448c.653 0 1.241.15 1.764.448.523.299.933.723 1.232 1.274.308.541.462 1.18.462 1.918 0 .737-.154 1.381-.462 1.932a3.268 3.268 0 01-1.26 1.26 3.493 3.493 0 01-1.764.448zm0-1.008c.401 0 .775-.098 1.12-.294.345-.196.625-.49.84-.882.215-.392.322-.877.322-1.456s-.107-1.064-.322-1.456a2.104 2.104 0 00-.826-.882 2.204 2.204 0 00-1.106-.294c-.401 0-.775.098-1.12.294-.345.196-.625.49-.84.882-.215.392-.322.877-.322 1.456s.107 1.064.322 1.456c.215.392.49.686.826.882.345.196.714.294 1.106.294zM119.05 15V8.056h1.064l.07 1.246c.224-.439.546-.784.966-1.036.42-.252.896-.378 1.428-.378.821 0 1.475.252 1.96.756.495.495.742 1.26.742 2.296V15h-1.176v-3.934c0-1.447-.597-2.17-1.792-2.17-.597 0-1.097.22-1.498.658-.392.43-.588 1.045-.588 1.848V15h-1.176zM133.511 15c-.635 0-1.134-.154-1.498-.462-.364-.308-.546-.863-.546-1.666V9.05h-1.204v-.994h1.204l.154-1.666h1.022v1.666h2.044v.994h-2.044v3.822c0 .439.089.737.266.896.177.15.49.224.938.224h.728V15h-1.064zM136.181 15V4.92h1.176v4.326c.233-.43.565-.76.994-.994a2.797 2.797 0 011.4-.364c.803 0 1.447.252 1.932.756.485.495.728 1.26.728 2.296V15h-1.162v-3.934c0-1.447-.583-2.17-1.75-2.17-.607 0-1.115.22-1.526.658-.411.43-.616 1.045-.616 1.848V15h-1.176zM147.315 15.168c-.663 0-1.251-.15-1.764-.448a3.322 3.322 0 01-1.218-1.274c-.29-.541-.434-1.18-.434-1.918 0-.728.144-1.363.434-1.904.289-.55.69-.975 1.204-1.274.522-.308 1.124-.462 1.806-.462.672 0 1.25.154 1.736.462.494.299.872.695 1.134 1.19a3.37 3.37 0 01.378 1.904v.35h-5.53c.028.532.149.975.364 1.33.224.345.499.607.826.784.336.177.69.266 1.064.266.485 0 .891-.112 1.218-.336a1.93 1.93 0 00.714-.91h1.162a3.157 3.157 0 01-1.078 1.61c-.523.42-1.195.63-2.016.63zm0-6.286c-.56 0-1.06.173-1.498.518-.43.336-.677.83-.742 1.484h4.368c-.028-.625-.243-1.115-.644-1.47-.402-.355-.896-.532-1.484-.532z"/>
  </g>
  <g>
    <path fill="#fff" fill-rule="evenodd" d="M20.427 5.333c.17 1.455-.443 2.889-1.34 3.943-.936 1.037-2.434 1.83-3.893 1.729-.19-1.4.548-2.89 1.376-3.797.935-1.031 2.559-1.82 3.857-1.875zm5.534 10.156c-.163.092-2.86 1.604-2.831 4.688.034 3.725 3.469 4.956 3.51 4.97-.02.086-.537 1.776-1.826 3.493-1.075 1.51-2.203 2.988-3.993 3.015-.85.018-1.426-.212-2.024-.451-.625-.25-1.276-.51-2.294-.51-1.08 0-1.76.268-2.416.527-.566.224-1.115.441-1.889.471-1.705.06-3.008-1.613-4.122-3.11-2.23-3.058-3.964-8.616-1.638-12.399a6.457 6.457 0 015.38-3.081c.967-.019 1.895.332 2.708.639.622.234 1.177.444 1.632.444.399 0 .938-.201 1.567-.436.991-.37 2.204-.821 3.44-.7.844.024 3.248.314 4.8 2.438l-.004.002z" clip-rule="evenodd"/>
  </g>
</svg>
