<svg xmlns="http://www.w3.org/2000/svg" width="88" height="88" fill="none" viewBox="0 0 88 88">
  <path fill="#69BC69" d="M69.015 21.587c0-5.925-3.901-15.326-14.37-15.326-4.3 0-7.919 2.016-10.785 6-2.866-3.984-6.484-6-10.785-6-10.468 0-14.369 9.4-14.369 15.326 0 10.216 8.022 16.607 18.98 25.921a901.506 901.506 0 015.052 4.315c.322.277.722.416 1.122.416.4 0 .801-.139 1.123-.416 1.775-1.531 3.44-2.946 5.05-4.315 11.474-9.751 18.982-15.92 18.982-25.92zM43.86 48.285c-1.369-1.175-2.674-2.285-3.946-3.366-11.466-9.744-17.781-15.112-17.781-23.332 0-5.575 3.67-11.92 10.942-11.92 3.796 0 6.832 2.166 9.282 6.622.3.546.877.886 1.503.886.627 0 1.203-.34 1.504-.886 2.45-4.456 5.486-6.622 9.281-6.622 7.171 0 10.943 6.25 10.943 11.92 0 8.22-6.315 13.588-17.781 23.333a1117.33 1117.33 0 00-3.947 3.364zM12.311 73.034l8.248 4.098v9.165c0 .94.767 1.703 1.714 1.703h18.16c.946 0 1.714-.762 1.714-1.703V64.066c0-5.217-3.938-9.544-9.147-10.063l-.14-.015c-3.015-.3-8.353-2.35-10.46-4.445l-3.848-3.823a6.83 6.83 0 00-4.846-1.995V30.102c0-3.756-3.074-6.812-6.853-6.812S0 26.346 0 30.102v23.132c0 8.38 4.763 16.048 12.311 19.8zM3.427 30.102c0-1.878 1.537-3.406 3.426-3.406 1.89 0 3.427 1.528 3.427 3.406v14.536a6.818 6.818 0 00-3.427 5.898c0 1.82.713 3.53 2.008 4.816l8.774 8.723a1.72 1.72 0 002.422 0 1.696 1.696 0 000-2.409l-8.773-8.722a3.372 3.372 0 01-1.004-2.408c0-1.44.917-2.732 2.284-3.211l.002-.001a3.436 3.436 0 013.563.805l3.847 3.823c3.973 3.948 12.652 5.434 12.67 5.439 3.462.345 6.074 3.215 6.074 6.675v20.528H23.986V76.08c0-.645-.367-1.235-.947-1.523l-9.195-4.569C7.418 66.794 3.427 60.374 3.427 53.234V30.102zM75.689 72.95l-8.248 4.1v9.164c0 .94-.767 1.703-1.714 1.703h-18.16a1.708 1.708 0 01-1.714-1.703V63.983c0-5.218 3.938-9.544 9.147-10.063l.14-.015c3.015-.3 8.353-2.35 10.46-4.445l3.849-3.823a6.83 6.83 0 014.845-1.995V30.019c0-3.756 3.074-6.812 6.853-6.812S88 26.263 88 30.019V53.15c0 8.38-4.763 16.047-12.311 19.8zm8.885-42.931c0-1.878-1.538-3.406-3.427-3.406-1.89 0-3.427 1.528-3.427 3.406v14.536a6.818 6.818 0 013.427 5.898c0 1.82-.713 3.53-2.008 4.816l-8.774 8.722a1.72 1.72 0 01-2.422 0 1.696 1.696 0 010-2.408l8.773-8.722a3.371 3.371 0 001.004-2.408 3.412 3.412 0 00-2.284-3.212h-.002a3.436 3.436 0 00-3.563.805l-3.847 3.823c-3.973 3.948-12.652 5.434-12.67 5.438-3.462.345-6.074 3.215-6.074 6.676V84.51h14.734v-8.514c0-.645.367-1.235.947-1.523l9.195-4.57c6.426-3.193 10.417-9.613 10.417-16.753V30.019z"/>
  <path fill="#69BC69" d="M78.64 70.63c.945 0 1.712-.762 1.712-1.703 0-.94-.767-1.702-1.713-1.702-.946 0-1.713.762-1.713 1.703 0 .94.767 1.702 1.713 1.702z"/>
</svg>
