<svg xmlns="http://www.w3.org/2000/svg" width="197" height="171" fill="none" viewBox="0 0 197 171">
  <path fill="#F3F6F7" d="M106.029 0H197v70.202c0 25.846-5.368 46.243-16.103 61.191-10.735 14.949-29.139 28.151-55.21 39.607l-19.658-37.301c16.033-7.545 27.117-15.089 33.251-22.633 6.135-7.404 9.551-16.206 10.248-26.404h-43.499V0zM0 0h90.971v70.202c0 25.846-5.367 46.243-16.103 61.191C64.133 146.342 45.73 159.544 19.658 171L0 133.699c16.033-7.545 27.117-15.089 33.252-22.633 6.134-7.404 9.55-16.206 10.247-26.404H0V0z"/>
</svg>
