<svg xmlns="http://www.w3.org/2000/svg" width="88" height="88" fill="none" viewBox="0 0 88 88">
  <path fill="#69BC69" stroke="#69BC69" stroke-width=".977" d="M79.102 68.79a42.85 42.85 0 003.201-44.294l-.002-.014a1.254 1.254 0 00-.065-.115 43.183 43.183 0 00-6.962-9.832c-.004-.008-.004-.017-.01-.024a1.352 1.352 0 00-.297-.3 43.228 43.228 0 00-11.193-8.375 1.353 1.353 0 00-.208-.107 42.837 42.837 0 00-37.432-.824 1.346 1.346 0 00-.198.09A43.252 43.252 0 004.5 27.036c-.017.03-.026.06-.04.089A42.984 42.984 0 0022.859 81.45 42.976 42.976 0 0078.87 69.115c.07-.066.133-.14.189-.22.021-.033.023-.07.042-.105zm-1.516-2.687c-2.095-2.005-2.92-4.979-3.598-7.437a21.63 21.63 0 00-.982-3.027 47.878 47.878 0 00-1.075-2.143c-1.301-2.499-3.267-6.275-2.631-8.082a6.185 6.185 0 00-6.532-8.643 22.754 22.754 0 01-10.51-1.565c-2.317-.981-5.087-4.903-4.125-7.881.93-2.872 7.14-4.23 9.961-3.33a17.464 17.464 0 013.365 1.827c2.57 1.616 5.774 3.629 9.19 3.116a75.111 75.111 0 009.611-2.345 40.146 40.146 0 01-2.674 39.51zm-5.73-51.082c-4.886 2.835-9.38 3.482-11.719 1.567-1.845-1.512-4.471-1.126-6.79-.784-1.406.205-3.156.464-3.725.008a1.52 1.52 0 01-.346-1.011 1.689 1.689 0 01.448-1.325c.937-1.041 3.295-1.73 6.308-1.841a12.89 12.89 0 007.245-2.93 40.434 40.434 0 018.579 6.316zM26.778 7.658a10.073 10.073 0 013.98 2.029c.25 2.444 2.961 2.263 4.756 2.152a6.4 6.4 0 013.36.287 18.081 18.081 0 01-2.194 1.505c-1.953 1.213-4.383 2.724-5.387 4.856-1.349 2.862-7.776 7.859-13.773 7.145-.846-.103-3.412-.413-4.517 1.391-1.236 2.016.41 4.792 2.204 7.463.184.274.338.503.438.669a2.864 2.864 0 01-.064 2.53c-.055.064-.188.218-.78-.01-3.361-1.279-6.31-5.828-7.615-9.846A40.467 40.467 0 0126.778 7.658zm17.224 76.568a40.207 40.207 0 01-39.72-33.872 40.214 40.214 0 011.446-18.707c1.78 3.738 4.613 7.299 8.084 8.621.484.192 1 .293 1.52.3a3.007 3.007 0 002.375-1.104 5.475 5.475 0 00.313-5.741 22.426 22.426 0 00-.512-.783c-2.147-3.2-2.26-4.177-2.155-4.45.004-.002.367-.28 1.833-.104 7.09.863 14.712-4.677 16.615-8.717.656-1.39 2.7-2.661 4.343-3.682 2.135-1.327 4.554-2.83 3.382-4.956-1.258-2.28-4.105-2.092-6.191-1.96-.621.059-1.245.07-1.868.033a5.352 5.352 0 00-3.04-2.966A40.116 40.116 0 0160.46 7.311a9.276 9.276 0 01-4.532 1.551c-2.73.1-6.38.662-8.267 2.76a4.474 4.474 0 00-1.154 3.37 3.993 3.993 0 001.375 2.981c1.51 1.217 3.728.892 5.868.576 1.75-.259 3.73-.55 4.628.185a8.208 8.208 0 005.325 1.717 20.262 20.262 0 0010.149-3.38 40.44 40.44 0 015.08 7.023 70.529 70.529 0 01-8.697 2.1c-2.396.354-5.004-1.277-7.301-2.722a19.045 19.045 0 00-3.994-2.118c-4.031-1.292-11.974.566-13.446 5.117-1.52 4.697 2.413 9.906 5.683 11.29a25.462 25.462 0 0011.783 1.777 3.436 3.436 0 013.722 4.955c-1.036 2.943 1.085 7.014 2.789 10.285.393.753.75 1.437 1.008 2.007.34.851.618 1.726.835 2.617.762 2.768 1.783 6.439 4.653 8.977a40.177 40.177 0 01-31.965 15.847zM42.56 49.969l-.96-.108a3.384 3.384 0 01-2.574-1.714l-1.12-2.016a6.951 6.951 0 00-6.074-3.574h-2.244a3.3 3.3 0 01-2.847-1.976 3.293 3.293 0 00-3.167-1.702h-.007a7.417 7.417 0 00-4.49 2.559c-1.42 1.43-3.818 4.46-3.805 6.75.03 4.685 7.898 8.502 9.149 9.075.181.318.817 1.99.169 9.19-.203 2.259-.385 7.938 2.319 11.87a3.334 3.334 0 002.892 1.534c.492-.01.98-.076 1.457-.199a4.126 4.126 0 002.985-4.08c.273-2.57.407-4.29.397-5.115-.023-2.045 1.456-4.052 4.397-5.962 3.152-2.047 5.115-6.815 6.206-10.454a3.178 3.178 0 00-2.683-4.078zm.026 3.28c-1.334 4.45-3.18 7.704-5.06 8.926-3.79 2.462-5.694 5.26-5.66 8.319.008.696-.127 2.398-.38 4.792-.16 1.511-.508 1.59-.847 1.668-1.025.234-1.213.133-1.444-.202-1.52-2.213-2.21-5.97-1.842-10.05.816-9.066-.127-11.34-1.791-11.963-1.866-.7-7.5-4.144-7.515-6.568a10.282 10.282 0 012.999-4.778c1.415-1.426 2.302-1.74 2.524-1.74.233-.036.615.026.706.201a6.014 6.014 0 005.312 3.478h2.245a4.174 4.174 0 013.649 2.147l1.12 2.017a6.159 6.159 0 004.69 3.123l.958.108a.385.385 0 01.287.175.407.407 0 01.049.347z"/>
</svg>
