<svg xmlns="http://www.w3.org/2000/svg" width="154" height="40" fill="none" viewBox="0 0 154 40">
  <path fill="#fff" d="M49.5 34.24c-1.32 0-2.473-.3-3.46-.9-.987-.6-1.753-1.44-2.3-2.52-.547-1.08-.82-2.34-.82-3.78 0-1.427.28-2.687.84-3.78a6.217 6.217 0 012.38-2.56c1.04-.627 2.267-.94 3.68-.94 1.6 0 2.933.387 4 1.16 1.067.773 1.76 1.84 2.08 3.2h-2.4a3.087 3.087 0 00-1.26-1.76c-.627-.427-1.433-.64-2.42-.64-1.467 0-2.62.473-3.46 1.42-.84.947-1.26 2.253-1.26 3.92 0 1.667.413 2.967 1.24 3.9.827.933 1.927 1.4 3.3 1.4 1.387 0 2.427-.393 3.12-1.18.707-.787 1.12-1.833 1.24-3.14h-3.8V26.4h5.94V34H54.2l-.18-2.06a4.984 4.984 0 01-1.76 1.7c-.707.4-1.627.6-2.76.6zM63.273 34.24c-.947 0-1.8-.213-2.56-.64a4.86 4.86 0 01-1.78-1.82c-.44-.787-.66-1.7-.66-2.74 0-1.04.22-1.947.66-2.72a4.772 4.772 0 011.82-1.82c.76-.44 1.607-.66 2.54-.66.947 0 1.793.22 2.54.66a4.634 4.634 0 011.8 1.82c.453.773.68 1.68.68 2.72 0 1.04-.227 1.953-.68 2.74a4.815 4.815 0 01-1.8 1.82c-.76.427-1.613.64-2.56.64zm0-1.82c.507 0 .973-.127 1.4-.38.44-.253.793-.627 1.06-1.12.267-.507.4-1.133.4-1.88 0-.747-.133-1.367-.4-1.86-.253-.507-.6-.887-1.04-1.14a2.693 2.693 0 00-1.4-.38c-.507 0-.98.127-1.42.38-.427.253-.773.633-1.04 1.14-.267.493-.4 1.113-.4 1.86 0 .747.133 1.373.4 1.88.267.493.613.867 1.04 1.12.427.253.893.38 1.4.38zM75.246 34.24c-.947 0-1.8-.213-2.56-.64a4.861 4.861 0 01-1.78-1.82c-.44-.787-.66-1.7-.66-2.74 0-1.04.22-1.947.66-2.72a4.773 4.773 0 011.82-1.82c.76-.44 1.606-.66 2.54-.66.946 0 1.793.22 2.54.66a4.634 4.634 0 011.8 1.82c.453.773.68 1.68.68 2.72 0 1.04-.227 1.953-.68 2.74a4.815 4.815 0 01-1.8 1.82c-.76.427-1.614.64-2.56.64zm0-1.82c.506 0 .973-.127 1.4-.38.44-.253.793-.627 1.06-1.12.266-.507.4-1.133.4-1.88 0-.747-.134-1.367-.4-1.86-.254-.507-.6-.887-1.04-1.14a2.693 2.693 0 00-1.4-.38 2.8 2.8 0 00-1.42.38c-.427.253-.774.633-1.04 1.14-.267.493-.4 1.113-.4 1.86 0 .747.133 1.373.4 1.88.266.493.613.867 1.04 1.12.426.253.893.38 1.4.38zM86.11 30.96c-.52 0-1-.06-1.44-.18l-.86.84c.147.093.328.173.54.24.214.067.514.127.9.18.388.053.914.107 1.58.16 1.32.12 2.274.44 2.86.96.588.507.88 1.187.88 2.04 0 .587-.16 1.14-.48 1.66-.306.533-.793.96-1.46 1.28-.652.333-1.492.5-2.52.5-1.386 0-2.513-.267-3.38-.8-.853-.52-1.28-1.313-1.28-2.38 0-.413.108-.827.32-1.24.228-.4.58-.78 1.06-1.14a5.448 5.448 0 01-.74-.38c-.2-.147-.38-.293-.54-.44v-.48l1.72-1.76c-.772-.667-1.16-1.54-1.16-2.62 0-.653.154-1.247.46-1.78.32-.547.78-.98 1.38-1.3.6-.32 1.32-.48 2.16-.48.56 0 1.08.08 1.56.24h3.7v1.4l-1.76.1c.32.547.48 1.153.48 1.82a3.43 3.43 0 01-.48 1.8c-.306.533-.76.96-1.36 1.28-.586.32-1.3.48-2.14.48zm0-1.66c.614 0 1.108-.16 1.48-.48.388-.333.58-.8.58-1.4 0-.613-.192-1.08-.58-1.4-.373-.32-.866-.48-1.48-.48-.626 0-1.132.16-1.52.48-.373.32-.56.787-.56 1.4 0 .6.188 1.067.56 1.4.388.32.894.48 1.52.48zm-2.66 5.96c0 .573.254 1 .76 1.28.508.293 1.14.44 1.9.44.734 0 1.328-.16 1.78-.48.454-.307.68-.72.68-1.24 0-.387-.152-.72-.46-1-.306-.267-.886-.433-1.74-.5-.64-.04-1.206-.1-1.7-.18-.466.253-.786.527-.96.82-.172.293-.26.58-.26.86zM93.262 34V19.6h2.12V34h-2.12zM102.706 34.24c-.973 0-1.84-.213-2.6-.64a4.716 4.716 0 01-1.76-1.82c-.426-.773-.64-1.673-.64-2.7 0-1.04.207-1.953.62-2.74a4.68 4.68 0 011.76-1.84c.76-.44 1.64-.66 2.64-.66.974 0 1.82.22 2.54.66.72.427 1.28 1 1.68 1.72.4.72.6 1.513.6 2.38 0 .133-.006.28-.02.44 0 .147-.006.313-.02.5h-7.72c.067.96.38 1.693.94 2.2a2.95 2.95 0 001.98.74c.6 0 1.1-.133 1.5-.4.414-.28.72-.653.92-1.12h2.12c-.266.933-.8 1.713-1.6 2.34-.786.627-1.766.94-2.94.94zm0-8.66c-.706 0-1.333.213-1.88.64-.546.413-.88 1.04-1 1.88h5.6c-.04-.773-.313-1.387-.82-1.84-.506-.453-1.14-.68-1.9-.68zM114.865 34V20h4.9c1.094 0 2 .187 2.72.56.72.36 1.254.86 1.6 1.5.36.627.54 1.34.54 2.14 0 .76-.173 1.46-.52 2.1-.333.627-.86 1.127-1.58 1.5-.72.373-1.64.56-2.76.56h-2.78V34h-2.12zm2.12-7.38h2.68c1 0 1.714-.213 2.14-.64.44-.44.66-1.033.66-1.78 0-.773-.22-1.373-.66-1.8-.426-.44-1.14-.66-2.14-.66h-2.68v4.88zM126.641 34V19.6h2.12V34h-2.12zM134.805 34.24c-.84 0-1.533-.14-2.08-.42-.546-.28-.953-.647-1.22-1.1a3.018 3.018 0 01-.4-1.52c0-.96.374-1.72 1.12-2.28.747-.56 1.814-.84 3.2-.84h2.6v-.18c0-.773-.213-1.353-.64-1.74-.413-.387-.953-.58-1.62-.58-.586 0-1.1.147-1.54.44-.426.28-.686.7-.78 1.26h-2.12c.067-.72.307-1.333.72-1.84a4.05 4.05 0 011.6-1.18 5.38 5.38 0 012.14-.42c1.387 0 2.46.367 3.22 1.1.76.72 1.14 1.707 1.14 2.96V34h-1.84l-.18-1.7a3.763 3.763 0 01-1.22 1.38c-.533.373-1.233.56-2.1.56zm.42-1.72c.574 0 1.054-.133 1.44-.4.4-.28.707-.647.92-1.1a4.23 4.23 0 00.42-1.5h-2.36c-.84 0-1.44.147-1.8.44-.346.293-.52.66-.52 1.1 0 .453.167.813.5 1.08.347.253.814.38 1.4.38zM143.465 38.4l2.38-5.22h-.58l-3.92-9.1h2.3l3.04 7.34 3.18-7.34h2.24l-6.4 14.32h-2.24z"/>
  <g>
    <path fill="#fff" d="M47.25 15.168c-.914 0-1.717-.21-2.408-.63a4.368 4.368 0 01-1.61-1.778c-.383-.765-.574-1.647-.574-2.646 0-.999.191-1.88.574-2.646a4.381 4.381 0 011.652-1.792c.719-.43 1.563-.644 2.534-.644 1.102 0 2.016.266 2.744.798.738.532 1.214 1.265 1.428 2.198h-1.358a2.246 2.246 0 00-.938-1.4c-.485-.345-1.11-.518-1.876-.518-.718 0-1.344.163-1.876.49-.532.317-.947.775-1.246 1.372-.29.597-.434 1.311-.434 2.142 0 .83.145 1.545.434 2.142.29.597.69 1.06 1.204 1.386.514.317 1.11.476 1.792.476 1.045 0 1.834-.303 2.366-.91.532-.616.835-1.456.91-2.52H47.74v-.924h4.032V15h-1.078l-.098-1.61c-.354.57-.788 1.008-1.302 1.316-.513.308-1.194.462-2.044.462zM56.684 15.168c-.663 0-1.25-.15-1.764-.448a3.332 3.332 0 01-1.218-1.274c-.29-.541-.434-1.18-.434-1.918 0-.728.145-1.363.434-1.904.29-.55.69-.975 1.204-1.274.523-.308 1.125-.462 1.806-.462.672 0 1.25.154 1.736.462.495.299.873.695 1.134 1.19a3.366 3.366 0 01.378 1.904v.35h-5.53c.028.532.15.975.364 1.33.224.345.5.607.826.784.336.177.69.266 1.064.266.485 0 .891-.112 1.218-.336.327-.224.565-.527.714-.91h1.162a3.156 3.156 0 01-1.078 1.61c-.523.42-1.195.63-2.016.63zm0-6.286c-.56 0-1.06.173-1.498.518-.43.336-.677.83-.742 1.484h4.368c-.028-.625-.243-1.115-.644-1.47s-.896-.532-1.484-.532zM64.044 15c-.634 0-1.134-.154-1.498-.462-.364-.308-.546-.863-.546-1.666V9.05h-1.204v-.994H62l.154-1.666h1.022v1.666h2.044v.994h-2.044v3.822c0 .439.089.737.266.896.178.15.49.224.938.224h.728V15h-1.064zM71.133 6.516a.825.825 0 01-.588-.224.825.825 0 01-.224-.588.76.76 0 01.224-.56.825.825 0 01.588-.224c.224 0 .416.075.574.224.159.15.238.336.238.56 0 .233-.079.43-.238.588a.807.807 0 01-.574.224zM70.545 15V8.056h1.176V15h-1.176zM76.513 15c-.635 0-1.134-.154-1.498-.462-.364-.308-.546-.863-.546-1.666V9.05h-1.204v-.994h1.204l.154-1.666h1.022v1.666h2.044v.994h-2.044v3.822c0 .439.089.737.266.896.177.15.49.224.938.224h.728V15h-1.064zM86.052 15.168a3.49 3.49 0 01-1.764-.448 3.297 3.297 0 01-1.246-1.26c-.299-.55-.448-1.195-.448-1.932 0-.737.154-1.377.462-1.918.308-.55.723-.975 1.246-1.274a3.569 3.569 0 011.778-.448c.653 0 1.241.15 1.764.448.523.299.933.723 1.232 1.274.308.541.462 1.18.462 1.918 0 .737-.154 1.381-.462 1.932a3.268 3.268 0 01-1.26 1.26 3.491 3.491 0 01-1.764.448zm0-1.008c.401 0 .775-.098 1.12-.294.345-.196.625-.49.84-.882.215-.392.322-.877.322-1.456s-.107-1.064-.322-1.456a2.104 2.104 0 00-.826-.882 2.205 2.205 0 00-1.106-.294c-.401 0-.775.098-1.12.294-.345.196-.625.49-.84.882-.215.392-.322.877-.322 1.456s.107 1.064.322 1.456c.215.392.49.686.826.882.345.196.714.294 1.106.294zM91.173 15V8.056h1.064l.07 1.246c.224-.439.546-.784.966-1.036.42-.252.896-.378 1.428-.378.822 0 1.475.252 1.96.756.495.495.742 1.26.742 2.296V15h-1.176v-3.934c0-1.447-.597-2.17-1.792-2.17-.597 0-1.096.22-1.498.658-.392.43-.588 1.045-.588 1.848V15h-1.176z"/>
  </g>
  <g>
    <path fill="#fff" fill-rule="evenodd" d="M5.952 6.825L18.551 20.02 6.013 33.33c-.366-.244-.563-.772-.566-1.455L5.334 8.252c-.004-.747.255-1.202.618-1.427zm16.754 8.785L7.386 6.843a1.487 1.487 0 00-.535-.176l12.221 12.8 3.634-3.857zm.68 8.375l-3.79-3.969 3.787-4.019 5.213 2.983c1.285.735.628 1.654 0 2.014l-5.21 2.99zM7.052 33.333a2.57 2.57 0 00.334-.162l15.324-8.797-3.633-3.805L7.05 33.333z" clip-rule="evenodd"/>
  </g>
</svg>
