<svg width="263" height="105" viewBox="0 0 263 105" fill="none" xmlns="http://www.w3.org/2000/svg">
<g clip-path="url(#clip0)">
<path d="M206.4 64.9724C216.425 64.8502 215.52 74.7034 213.815 79.6453C217.547 77.1992 225.677 73.7747 228.336 79.6453C231.66 86.9835 231.66 89.8894 252.205 91.7023C268.642 93.1526 262.68 101.371 257.644 105.299C186.54 105.601 40.2833 106.024 24.0885 105.299C3.84502 104.392 -7.03289 98.3494 5.05278 94.1194C17.1384 89.8895 26.5059 83.2423 28.9231 73.8759C31.3402 64.5096 36.7782 63.301 50.9788 64.9724C65.1795 66.6438 70.9203 75.0846 70.316 59.0711C70.2008 56.018 70.5579 53.536 71.2637 51.5204C74.2357 53.2336 75.9997 53.1 79.1611 52.1367C78.2269 49.4306 77.2923 48.2387 74.6243 46.4826C78.7864 42.913 85.0994 42.8755 89.6542 43.0577C97.2077 43.3599 95.0017 50.6086 106.31 46.4826C117.617 42.3566 116.7 51.5255 124.035 52.1367C131.37 52.7479 128.008 46.6354 138.552 46.4826C149.096 46.3298 145.735 54.8868 153.222 60.8467C160.71 66.8065 158.876 56.2621 170.184 54.8868C175.35 54.2585 177.932 57.5529 179.986 61.4482C177.743 62.5153 177.12 63.6236 176.471 66.1087C178.962 66.7949 180.253 66.8454 182.283 66.1087C183.84 69.1804 185.573 71.8065 188.521 72.307C196.62 73.6823 193.87 65.1251 206.4 64.9724Z" fill="#30865D"/>
<path fill-rule="evenodd" clip-rule="evenodd" d="M83.7516 43C82.6265 43.9538 81.8321 45.2743 81.9121 47.0547C81.9972 48.9488 83.8356 51.1672 85.6868 53.401C88.999 57.3978 92.3522 61.4442 85.7768 63.7709C82.6825 64.8658 80.6012 65.4074 79.1124 65.7949C75.6693 66.691 75.3941 66.7626 73.0821 70.9461C71.4373 73.9225 66.9719 72.5612 61.715 70.9585C56.3877 69.3345 50.2476 67.4626 45.4059 69.6057C35.7863 73.8635 35.0763 77.4906 38.9399 83.7197C40.5007 86.2361 41.7655 88.5594 41.8923 90.669C39.6712 89.9749 38.4329 90.0111 36.1294 90.9373C37.3092 93.0869 38.2203 93.9627 40.449 94.5236C39.0353 96.0211 36.4805 97.3648 32.3165 98.5433C26.4761 100.196 21.4401 102.14 18.1888 104.726C1.8611 103.034 -5.79751 97.7754 5.05278 93.9779C17.1384 89.7479 26.5059 83.1008 28.9231 73.7344C31.3402 64.368 36.7782 63.1594 50.9788 64.8308C55.1759 65.3248 58.634 66.4102 61.4077 67.2807C68.0187 69.3555 70.7417 70.2102 70.316 58.9295C70.2008 55.8764 70.5579 53.3944 71.2637 51.3789C74.2357 53.092 75.9997 52.9584 79.1611 51.9951C78.2269 49.289 77.2923 48.0972 74.6243 46.341C77.1623 44.1643 80.5003 43.301 83.7516 43Z" fill="#5BCD63"/>
<path fill-rule="evenodd" clip-rule="evenodd" d="M136.52 46.1211C132.698 48.4268 129.384 52.0678 130.097 57.9332C131.318 67.9733 134.149 68.9867 140.752 69.2225C143.139 69.3077 146.243 68.6376 149.205 67.998C154.434 66.8689 159.221 65.8353 158.845 69.2225C158.255 74.5282 159.37 81.4846 166.68 79.2444C173.99 77.0042 196.574 72.6417 191.976 82.4279C187.378 92.2141 189.5 101.764 197.4 97.6378C198.543 97.0403 199.88 96.2847 201.349 95.4543C210.025 90.5488 223.318 83.0333 228.763 90.0918C231.989 94.2738 230.371 100.127 227.703 105.015C238.667 104.976 248.846 104.936 257.827 104.897C262.87 100.964 268.84 92.735 252.381 91.2827C233.063 89.5782 231.885 86.9086 229.057 80.5057C228.874 80.0897 228.683 79.6578 228.48 79.2094C225.817 73.3309 217.676 76.7601 213.939 79.2094C215.647 74.2609 216.553 64.3944 206.515 64.5168C199.807 64.5985 197.472 67.0853 195.513 69.1719C193.807 70.9887 192.386 72.5023 188.611 71.8613C185.659 71.3601 183.924 68.7305 182.364 65.6546C180.332 66.3923 179.039 66.3418 176.545 65.6546C177.194 63.1662 177.819 62.0564 180.065 60.9878C178.008 57.0873 175.422 53.7884 170.249 54.4175C164.937 55.0636 162.521 57.7301 160.679 59.7632C158.595 62.0641 157.245 63.5538 153.265 60.3855C150.243 57.98 148.985 55.152 147.87 52.643C146.218 48.9271 144.877 45.9107 138.575 46.002C137.822 46.0129 137.14 46.0542 136.52 46.1211Z" fill="url(#paint0_linear)"/>
<path d="M210.581 106.13H169.822L183.375 69.984C188.765 64.3112 188.988 53.2611 210.581 42.9299C223.912 36.5521 220.098 29.3497 229.727 17.6143C223.609 38.4767 225.836 46.4991 214.434 58.0716C203.032 69.6442 207.106 94.855 210.581 106.13Z" fill="#42B55A"/>
<path d="M220.645 39.2197C223.783 31.8285 228.286 21.1478 230.145 16.7314C225.326 32.4168 226.532 43.3194 218.292 53.7699C207.992 66.8329 208.913 69.0101 207.322 81.5707C206.05 91.6191 209.862 102.325 211.425 106.423H184.123C186.099 95.9629 191.27 72.9169 196.151 64.4097C202.253 53.7758 216.722 48.4588 220.645 39.2197Z" fill="#39AD51"/>
<path d="M174.792 58.2833C187.073 88.4038 155.983 96.68 138.264 106.469H185.727C190.723 94.2841 205.205 73.1243 190.876 52.0691C176.547 31.0139 175.068 4.99562 176.896 0C173.24 5.36128 162.511 28.1627 174.792 58.2833Z" fill="#5BCD63"/>
<path d="M127.559 63.4901C123.509 61.8173 115.761 55.8833 117.169 45.5299C119.518 28.2501 129.235 25.1914 142.968 27.8327C156.702 30.4743 166.504 40.7166 171.581 45.5299C158.449 36.4088 137.412 34.0422 130.444 40.879C124.739 46.4764 126.003 61.0249 127.559 63.4901Z" fill="#5BCD63"/>
</g>
<defs>
<linearGradient id="paint0_linear" x1="196.584" y1="46" x2="247.985" y2="140.707" gradientUnits="userSpaceOnUse">
<stop stop-color="#1F4564"/>
<stop offset="1" stop-color="#1F4564" stop-opacity="0"/>
</linearGradient>
<clipPath id="clip0">
<rect width="263" height="105" fill="white"/>
</clipPath>
</defs>
</svg>
