<svg xmlns="http://www.w3.org/2000/svg" width="197" height="171" fill="none" viewBox="0 0 197 171">
  <path fill="#F3F6F7" d="M90.971 171H0v-70.202c0-25.846 5.368-46.243 16.103-61.191C26.838 24.658 45.242 11.456 71.313 0l19.658 37.301C74.938 44.846 63.854 52.39 57.72 59.934c-6.135 7.404-9.55 16.206-10.248 26.404h43.5V171zM197 171h-90.971v-70.202c0-25.846 5.367-46.243 16.103-61.191C132.867 24.658 151.27 11.456 177.342 0L197 37.301c-16.033 7.545-27.117 15.089-33.252 22.633-6.134 7.404-9.55 16.206-10.247 26.404H197V171z"/>
</svg>
