<svg xmlns="http://www.w3.org/2000/svg" width="88" height="88" fill="none" viewBox="0 0 88 88">
  <path fill="#69BC69" fill-rule="evenodd" d="M72.42 39.5c1.954.899 3.697 2.249 5.055 3.94a13.94 13.94 0 013.057 8.698c0 7.667-6.24 13.906-13.907 13.906H44.873v18.743h19.89a1.607 1.607 0 010 3.213H21.769a1.607 1.607 0 010-3.213h19.89V66.044H19.907C12.239 66.044 6 59.804 6 52.137a13.94 13.94 0 013.057-8.697 14.006 14.006 0 015.055-3.941l.793-.365-.255-.834a18.75 18.75 0 01-.81-5.483c0-4.511 1.618-8.877 4.555-12.293a18.915 18.915 0 019.365-5.92l.634-.172.093-.65c.46-3.2 1.94-6.152 4.279-8.467A14.835 14.835 0 0143.266 1c3.96 0 7.685 1.531 10.5 4.316a14.827 14.827 0 014.279 8.466l.093.65.634.172a18.914 18.914 0 019.365 5.92 18.868 18.868 0 014.554 12.293c0 1.883-.272 3.718-.81 5.483l-.253.834.792.365zm-53.032 1.777l-1.933.453a10.649 10.649 0 00-8.242 10.408c0 5.897 4.796 10.693 10.694 10.693l21.752-.001v-6.509l-7.996-7.995a1.607 1.607 0 112.272-2.273l5.724 5.724V37.519l-7.996-7.996a1.607 1.607 0 112.272-2.272l5.724 5.723v-7.678a1.607 1.607 0 013.214 0v17.08l5.723-5.724a1.607 1.607 0 012.273 2.272l-7.996 7.996v15.91h21.752c5.897 0 10.693-4.796 10.693-10.693 0-4.986-3.39-9.27-8.242-10.407l-1.932-.453.846-1.796a15.528 15.528 0 001.487-6.665c0-3.742-1.34-7.363-3.777-10.198a15.669 15.669 0 00-9.366-5.258L55 17.145l-.016-1.352c-.076-6.388-5.33-11.58-11.718-11.58s-11.642 5.192-11.718 11.58l-.016 1.352-1.334.215a15.668 15.668 0 00-9.366 5.258 15.653 15.653 0 00-3.777 10.199c0 2.325.5 4.57 1.487 6.664l.846 1.796z" clip-rule="evenodd"/>
</svg>
